<svg xmlns="http://www.w3.org/2000/svg" viewBox="0 0 32 32" role="img" aria-label="WhatsApp"><path fill="currentColor" d="M16.03 3.2A12.66 12.66 0 0 0 5.25 22.5L3.7 28.8l6.46-1.5A12.66 12.66 0 1 0 16.03 3.2Zm0 22.94c-2.1 0-4.05-.63-5.68-1.7l-.4-.26-3.82.9.91-3.72-.27-.4a10.24 10.24 0 1 1 9.26 5.18Zm5.67-7.64c-.31-.16-1.84-.91-2.13-1.01-.28-.11-.49-.16-.7.16-.2.31-.8 1.01-.98 1.22-.18.21-.36.24-.67.08-.31-.16-1.31-.48-2.5-1.54a9.36 9.36 0 0 1-1.73-2.15c-.18-.31-.02-.48.14-.64.14-.14.31-.36.47-.54.16-.18.21-.31.31-.52.1-.21.05-.39-.03-.54-.08-.16-.7-1.68-.95-2.3-.25-.6-.51-.52-.7-.53h-.6c-.21 0-.54.08-.82.39-.28.31-1.08 1.05-1.08 2.56 0 1.51 1.11 2.98 1.26 3.18.16.21 2.18 3.34 5.29 4.68.74.32 1.32.51 1.77.65.74.24 1.42.2 1.96.12.6-.09 1.84-.75 2.1-1.48.26-.73.26-1.35.18-1.48-.08-.13-.28-.21-.6-.37Z"/></svg>